<svg xmlns="http://www.w3.org/2000/svg" xmlns:xlink="http://www.w3.org/1999/xlink" xmlns:lucid="lucid" width="1183.14" height="311"><g transform="translate(-387.8647449016944 -189)" lucid:page-tab-id="0_0"><path d="M0 0h1870.87v1322.83H0z" fill="#fff"/><path d="M420 240h1120v120H420z" stroke="#5e5e5e" stroke-width="3" fill="#fff"/><use xlink:href="#a" transform="matrix(1,0,0,1,432,252) translate(545.5617283950618 53.77777777777778)"/><path d="M420 240h260v120H420z" stroke="#5e5e5e" stroke-width="3" fill="#ff8f80"/><use xlink:href="#b" transform="matrix(1,0,0,1,432,252) translate(68.27777777777777 53.77777777777778)"/><use xlink:href="#c" transform="matrix(1,0,0,1,432,252) translate(95.00617283950616 53.77777777777778)"/><path d="M680 240h140v120H680z" stroke="#5e5e5e" stroke-width="3" fill="#ffdf71"/><use xlink:href="#d" transform="matrix(1,0,0,1,692,252) translate(34.82098765432099 38.77777777777778)"/><use xlink:href="#c" transform="matrix(1,0,0,1,692,252) translate(21.641975308641975 65.44444444444446)"/><path d="M820 240h180v120H820z" stroke="#5e5e5e" stroke-width="3" fill="#a3d977"/><use xlink:href="#e" transform="matrix(1,0,0,1,832,252) translate(15.160493827160494 53.77777777777778)"/><use xlink:href="#c" transform="matrix(1,0,0,1,832,252) translate(68.12345679012346 53.77777777777778)"/><path d="M1000 240h280v120h-280z" stroke="#5e5e5e" stroke-width="3" fill="#99d2f2"/><use xlink:href="#e" transform="matrix(1,0,0,1,1012,252) translate(57.10493827160494 53.77777777777778)"/><use xlink:href="#f" transform="matrix(1,0,0,1,1012,252) translate(110.0679012345679 53.77777777777778)"/><path d="M513.93 221h-95.07v-2h95.07zM680 221h-95.06v-2H680z" fill="#5e5e5e"/><path d="M420.86 235h-2v-30h2zM680 235h-2v-30h2z" fill="#5e5e5e"/><use xlink:href="#g" transform="matrix(1,0,0,1,513.926199611341,209.33333333333334) translate(0 14.222222222222223)"/><use xlink:href="#h" transform="matrix(1,0,0,1,513.926199611341,209.33333333333334) translate(24.69135802469136 14.222222222222223)"/><path d="M719.43 221H680v-2h39.43zM820 221h-39.43v-2H820z" fill="#5e5e5e"/><path d="M682 235h-2v-30h2zM820 235h-2v-30h2z" fill="#5e5e5e"/><use xlink:href="#i" transform="matrix(1,0,0,1,719.4320987654321,209.33333333333334) translate(0 14.222222222222223)"/><use xlink:href="#h" transform="matrix(1,0,0,1,719.4320987654321,209.33333333333334) translate(14.814814814814817 14.222222222222223)"/><path d="M874.5 221H820v-2h54.5zm125.5 0h-54.5v-2h54.5z" fill="#5e5e5e"/><path d="M822 235h-2v-30h2zM1000 235h-2v-30h2z" fill="#5e5e5e"/><use xlink:href="#j" transform="matrix(1,0,0,1,874.4938271604938,209.33333333333334) translate(0 14.222222222222223)"/><use xlink:href="#h" transform="matrix(1,0,0,1,874.4938271604938,209.33333333333334) translate(24.69135802469136 14.222222222222223)"/><path d="M1077.4 221H1000v-2h77.4zm202.6 0h-77.4v-2h77.4z" fill="#5e5e5e"/><path d="M1002 235h-2v-30h2zM1280 235h-2v-30h2z" fill="#5e5e5e"/><use xlink:href="#k" transform="matrix(1,0,0,1,1077.4074074074074,209.33333333333334) translate(0 14.222222222222223)"/><use xlink:href="#l" transform="matrix(1,0,0,1,1077.4074074074074,209.33333333333334) translate(72.0493827160494 14.222222222222223)"/><path d="M1285 299.98l49.9-.25M1285.13 299.98l-5.13.02" stroke="#5e5e5e" stroke-width="10" fill="none"/><path d="M1354.18 299.64l-14.25 4.7-.04-9.26z" stroke="#5e5e5e" stroke-width="10" fill="#5e5e5e"/><path d="M934.62 401H420v-2h514.62zm605.38 0h-514.62v-2H1540z" fill="#5e5e5e"/><path d="M422 415h-2v-30h2zM1540 415h-2v-30h2z" fill="#5e5e5e"/><g><use xlink:href="#m" transform="matrix(1,0,0,1,934.6172839506173,389.3333333333333) translate(0 14.222222222222223)"/><use xlink:href="#h" transform="matrix(1,0,0,1,934.6172839506173,389.3333333333333) translate(44.44444444444445 14.222222222222223)"/></g><path d="M880 426c0-3.3 2.7-6 6-6h228c3.3 0 6 2.7 6 6v48c0 3.3-2.7 6-6 6H886c-3.3 0-6-2.7-6-6z" stroke="#000" stroke-opacity="0" stroke-width="3" fill="#fff" fill-opacity="0"/><g><use xlink:href="#n" transform="matrix(1,0,0,1,885,425) translate(5.506172839506192 31.138888888888886)"/><use xlink:href="#o" transform="matrix(1,0,0,1,885,425) translate(133.23456790123458 31.138888888888886)"/></g><defs><path fill="#333" d="M24 0v-261h32V0H24" id="p"/><use transform="matrix(0.06172839506172839,0,0,0.06172839506172839,0,0)" xlink:href="#p" id="a"/><path fill="#333" d="M33 0v-248h34V0H33" id="q"/><path fill="#333" d="M30-248c87 1 191-15 191 75 0 78-77 80-158 76V0H30v-248zm33 125c57 0 124 11 124-50 0-59-68-47-124-48v98" id="r"/><g id="b"><use transform="matrix(0.06172839506172839,0,0,0.06172839506172839,0,0)" xlink:href="#q"/><use transform="matrix(0.06172839506172839,0,0,0.06172839506172839,6.172839506172839,0)" xlink:href="#r"/></g><path fill="#333" d="M197 0v-115H63V0H30v-248h33v105h134v-105h34V0h-34" id="s"/><path fill="#333" d="M100-194c63 0 86 42 84 106H49c0 40 14 67 53 68 26 1 43-12 49-29l28 8c-11 28-37 45-77 45C44 4 14-33 15-96c1-61 26-98 85-98zm52 81c6-60-76-77-97-28-3 7-6 17-6 28h103" id="t"/><path fill="#333" d="M141-36C126-15 110 5 73 4 37 3 15-17 15-53c-1-64 63-63 125-63 3-35-9-54-41-54-24 1-41 7-42 31l-33-3c5-37 33-52 76-52 45 0 72 20 72 64v82c-1 20 7 32 28 27v20c-31 9-61-2-59-35zM48-53c0 20 12 33 32 33 41-3 63-29 60-74-43 2-92-5-92 41" id="u"/><path fill="#333" d="M85-194c31 0 48 13 60 33l-1-100h32l1 261h-30c-2-10 0-23-3-31C134-8 116 4 85 4 32 4 16-35 15-94c0-66 23-100 70-100zm9 24c-40 0-46 34-46 75 0 40 6 74 45 74 42 0 51-32 51-76 0-42-9-74-50-73" id="v"/><path fill="#333" d="M114-163C36-179 61-72 57 0H25l-1-190h30c1 12-1 29 2 39 6-27 23-49 58-41v29" id="w"/><g id="c"><use transform="matrix(0.06172839506172839,0,0,0.06172839506172839,0,0)" xlink:href="#s"/><use transform="matrix(0.06172839506172839,0,0,0.06172839506172839,15.987654320987653,0)" xlink:href="#t"/><use transform="matrix(0.06172839506172839,0,0,0.06172839506172839,28.333333333333332,0)" xlink:href="#u"/><use transform="matrix(0.06172839506172839,0,0,0.06172839506172839,40.67901234567901,0)" xlink:href="#v"/><use transform="matrix(0.06172839506172839,0,0,0.06172839506172839,53.02469135802469,0)" xlink:href="#t"/><use transform="matrix(0.06172839506172839,0,0,0.06172839506172839,65.37037037037037,0)" xlink:href="#w"/></g><path fill="#333" d="M232-93c-1 65-40 97-104 97C67 4 28-28 28-90v-158h33c8 89-33 224 67 224 102 0 64-133 71-224h33v155" id="x"/><path fill="#333" d="M30-248c118-7 216 8 213 122C240-48 200 0 122 0H30v-248zM63-27c89 8 146-16 146-99s-60-101-146-95v194" id="y"/><g id="d"><use transform="matrix(0.06172839506172839,0,0,0.06172839506172839,0,0)" xlink:href="#x"/><use transform="matrix(0.06172839506172839,0,0,0.06172839506172839,15.987654320987653,0)" xlink:href="#y"/><use transform="matrix(0.06172839506172839,0,0,0.06172839506172839,31.975308641975307,0)" xlink:href="#r"/></g><path fill="#333" d="M190 0L58-211 59 0H30v-248h39L202-35l-2-213h31V0h-41" id="z"/><path fill="#333" d="M185-189c-5-48-123-54-124 2 14 75 158 14 163 119 3 78-121 87-175 55-17-10-28-26-33-46l33-7c5 56 141 63 141-1 0-78-155-14-162-118-5-82 145-84 179-34 5 7 8 16 11 25" id="A"/><g id="e"><use transform="matrix(0.06172839506172839,0,0,0.06172839506172839,0,0)" xlink:href="#y"/><use transform="matrix(0.06172839506172839,0,0,0.06172839506172839,15.987654320987653,0)" xlink:href="#z"/><use transform="matrix(0.06172839506172839,0,0,0.06172839506172839,31.975308641975307,0)" xlink:href="#A"/></g><path fill="#333" d="M140-251c81 0 123 46 123 126C263-53 228-8 163 1c7 30 30 48 69 40v23c-55 16-95-15-103-61C56-3 17-48 17-125c0-80 42-126 123-126zm0 227c63 0 89-41 89-101s-29-99-89-99c-61 0-89 39-89 99S79-25 140-24" id="B"/><path fill="#333" d="M84 4C-5 8 30-112 23-190h32v120c0 31 7 50 39 49 72-2 45-101 50-169h31l1 190h-30c-1-10 1-25-2-33-11 22-28 36-60 37" id="C"/><path fill="#333" d="M135-143c-3-34-86-38-87 0 15 53 115 12 119 90S17 21 10-45l28-5c4 36 97 45 98 0-10-56-113-15-118-90-4-57 82-63 122-42 12 7 21 19 24 35" id="D"/><path fill="#333" d="M59-47c-2 24 18 29 38 22v24C64 9 27 4 27-40v-127H5v-23h24l9-43h21v43h35v23H59v120" id="E"/><path fill="#333" d="M24-231v-30h32v30H24zM24 0v-190h32V0H24" id="F"/><path fill="#333" d="M100-194c62-1 85 37 85 99 1 63-27 99-86 99S16-35 15-95c0-66 28-99 85-99zM99-20c44 1 53-31 53-75 0-43-8-75-51-75s-53 32-53 75 10 74 51 75" id="G"/><path fill="#333" d="M117-194c89-4 53 116 60 194h-32v-121c0-31-8-49-39-48C34-167 62-67 57 0H25l-1-190h30c1 10-1 24 2 32 11-22 29-35 61-36" id="H"/><g id="f"><use transform="matrix(0.06172839506172839,0,0,0.06172839506172839,0,0)" xlink:href="#B"/><use transform="matrix(0.06172839506172839,0,0,0.06172839506172839,17.28395061728395,0)" xlink:href="#C"/><use transform="matrix(0.06172839506172839,0,0,0.06172839506172839,29.629629629629626,0)" xlink:href="#t"/><use transform="matrix(0.06172839506172839,0,0,0.06172839506172839,41.9753086419753,0)" xlink:href="#D"/><use transform="matrix(0.06172839506172839,0,0,0.06172839506172839,53.08641975308642,0)" xlink:href="#E"/><use transform="matrix(0.06172839506172839,0,0,0.06172839506172839,59.25925925925926,0)" xlink:href="#F"/><use transform="matrix(0.06172839506172839,0,0,0.06172839506172839,64.1358024691358,0)" xlink:href="#G"/><use transform="matrix(0.06172839506172839,0,0,0.06172839506172839,76.48148148148148,0)" xlink:href="#H"/></g><path fill="#333" d="M182-182c0 78-84 86-111 141h115V0H12c-6-101 99-100 120-180 1-22-12-31-33-32-23 0-32 14-35 34l-49-3c5-45 32-70 84-70 51 0 83 22 83 69" id="I"/><path fill="#333" d="M101-251c68 0 84 54 84 127C185-50 166 4 99 4S15-52 14-124c-1-75 17-127 87-127zm-1 216c37-5 36-46 36-89s4-89-36-89c-39 0-36 45-36 89 0 43-3 85 36 89" id="J"/><g id="g"><use transform="matrix(0.04938271604938272,0,0,0.04938271604938272,0,0)" xlink:href="#I"/><use transform="matrix(0.04938271604938272,0,0,0.04938271604938272,9.876543209876544,0)" xlink:href="#J"/></g><path fill="#333" d="M135-194c52 0 70 43 70 98 0 56-19 99-73 100-30 1-46-15-58-35L72 0H24l1-261h50v104c11-23 29-37 60-37zM114-30c31 0 40-27 40-66 0-37-7-63-39-63s-41 28-41 65c0 36 8 64 40 64" id="K"/><path fill="#333" d="M123 10C108 53 80 86 19 72V37c35 8 53-11 59-39L3-190h52l48 148c12-52 28-100 44-148h51" id="L"/><path fill="#333" d="M115-3C79 11 28 4 28-45v-112H4v-33h27l15-45h31v45h36v33H77v99c-1 23 16 31 38 25v30" id="M"/><path fill="#333" d="M185-48c-13 30-37 53-82 52C43 2 14-33 14-96s30-98 90-98c62 0 83 45 84 108H66c0 31 8 55 39 56 18 0 30-7 34-22zm-45-69c5-46-57-63-70-21-2 6-4 13-4 21h74" id="N"/><path fill="#333" d="M137-138c1-29-70-34-71-4 15 46 118 7 119 86 1 83-164 76-172 9l43-7c4 19 20 25 44 25 33 8 57-30 24-41C81-84 22-81 20-136c-2-80 154-74 161-7" id="O"/><g id="h"><use transform="matrix(0.04938271604938272,0,0,0.04938271604938272,0,0)" xlink:href="#K"/><use transform="matrix(0.04938271604938272,0,0,0.04938271604938272,10.814814814814815,0)" xlink:href="#L"/><use transform="matrix(0.04938271604938272,0,0,0.04938271604938272,20.69135802469136,0)" xlink:href="#M"/><use transform="matrix(0.04938271604938272,0,0,0.04938271604938272,26.567901234567902,0)" xlink:href="#N"/><use transform="matrix(0.04938271604938272,0,0,0.04938271604938272,36.44444444444445,0)" xlink:href="#O"/></g><path fill="#333" d="M138-131c27 9 52 24 51 61 0 53-36 74-89 74S11-19 11-69c0-35 22-54 51-61-78-25-46-121 38-121 51 0 83 19 83 66 0 30-18 49-45 54zm-38-16c24 0 32-13 32-36 1-23-11-34-32-34-22 0-33 12-32 34 0 22 9 36 32 36zm1 116c27 0 37-17 37-43 0-25-13-39-39-39-24 0-37 15-37 40 0 27 11 42 39 42" id="P"/><use transform="matrix(0.04938271604938272,0,0,0.04938271604938272,0,0)" xlink:href="#P" id="i"/><path fill="#333" d="M23 0v-37h61v-169l-59 37v-38l62-41h46v211h57V0H23" id="Q"/><g id="j"><use transform="matrix(0.04938271604938272,0,0,0.04938271604938272,0,0)" xlink:href="#Q"/><use transform="matrix(0.04938271604938272,0,0,0.04938271604938272,9.876543209876544,0)" xlink:href="#I"/></g><path fill="#333" d="M128 0H69L1-190h53L99-40l48-150h52" id="R"/><path fill="#333" d="M133-34C117-15 103 5 69 4 32 3 11-16 11-54c-1-60 55-63 116-61 1-26-3-47-28-47-18 1-26 9-28 27l-52-2c7-38 36-58 82-57s74 22 75 68l1 82c-1 14 12 18 25 15v27c-30 8-71 5-69-32zm-48 3c29 0 43-24 42-57-32 0-66-3-65 30 0 17 8 27 23 27" id="S"/><path fill="#333" d="M135-150c-39-12-60 13-60 57V0H25l-1-190h47c2 13-1 29 3 40 6-28 27-53 61-41v41" id="T"/><path fill="#333" d="M25-224v-37h50v37H25zM25 0v-190h50V0H25" id="U"/><path fill="#333" d="M25 0v-261h50V0H25" id="V"/><g id="k"><use transform="matrix(0.04938271604938272,0,0,0.04938271604938272,0,0)" xlink:href="#R"/><use transform="matrix(0.04938271604938272,0,0,0.04938271604938272,9.876543209876544,0)" xlink:href="#S"/><use transform="matrix(0.04938271604938272,0,0,0.04938271604938272,19.75308641975309,0)" xlink:href="#T"/><use transform="matrix(0.04938271604938272,0,0,0.04938271604938272,26.666666666666668,0)" xlink:href="#U"/><use transform="matrix(0.04938271604938272,0,0,0.04938271604938272,31.60493827160494,0)" xlink:href="#S"/><use transform="matrix(0.04938271604938272,0,0,0.04938271604938272,41.48148148148149,0)" xlink:href="#K"/><use transform="matrix(0.04938271604938272,0,0,0.04938271604938272,52.2962962962963,0)" xlink:href="#V"/><use transform="matrix(0.04938271604938272,0,0,0.04938271604938272,57.23456790123457,0)" xlink:href="#N"/></g><path fill="#333" d="M135-194c87-1 58 113 63 194h-50c-7-57 23-157-34-157-59 0-34 97-39 157H25l-1-190h47c2 12-1 28 3 38 12-26 28-41 61-42" id="W"/><path fill="#333" d="M195-6C206 82 75 100 31 46c-4-6-6-13-8-21l49-6c3 16 16 24 34 25 40 0 42-37 40-79-11 22-30 35-61 35-53 0-70-43-70-97 0-56 18-96 73-97 30 0 46 14 59 34l2-30h47zm-90-29c32 0 41-27 41-63 0-35-9-62-40-62-32 0-39 29-40 63 0 36 9 62 39 62" id="X"/><path fill="#333" d="M114-157C55-157 80-60 75 0H25v-261h50l-1 109c12-26 28-41 61-42 86-1 58 113 63 194h-50c-7-57 23-157-34-157" id="Y"/><g id="l"><use transform="matrix(0.04938271604938272,0,0,0.04938271604938272,0,0)" xlink:href="#V"/><use transform="matrix(0.04938271604938272,0,0,0.04938271604938272,4.938271604938272,0)" xlink:href="#N"/><use transform="matrix(0.04938271604938272,0,0,0.04938271604938272,14.814814814814817,0)" xlink:href="#W"/><use transform="matrix(0.04938271604938272,0,0,0.04938271604938272,25.629629629629633,0)" xlink:href="#X"/><use transform="matrix(0.04938271604938272,0,0,0.04938271604938272,36.44444444444445,0)" xlink:href="#M"/><use transform="matrix(0.04938271604938272,0,0,0.04938271604938272,42.320987654320994,0)" xlink:href="#Y"/></g><path fill="#333" d="M165-50V0h-47v-50H5v-38l105-160h55v161h33v37h-33zm-47-37l2-116L46-87h72" id="Z"/><g id="m"><use transform="matrix(0.04938271604938272,0,0,0.04938271604938272,0,0)" xlink:href="#Q"/><use transform="matrix(0.04938271604938272,0,0,0.04938271604938272,9.876543209876544,0)" xlink:href="#J"/><use transform="matrix(0.04938271604938272,0,0,0.04938271604938272,19.75308641975309,0)" xlink:href="#I"/><use transform="matrix(0.04938271604938272,0,0,0.04938271604938272,29.629629629629633,0)" xlink:href="#Z"/></g><path fill="#333" d="M24-248c93 1 206-16 204 79-1 75-69 88-152 82V0H24v-248zm52 121c47 0 100 7 100-41 0-47-54-39-100-39v80" id="aa"/><path fill="#333" d="M110-194c64 0 96 36 96 99 0 64-35 99-97 99-61 0-95-36-95-99 0-62 34-99 96-99zm-1 164c35 0 45-28 45-65 0-40-10-65-43-65-34 0-45 26-45 65 0 36 10 65 43 65" id="ab"/><path fill="#333" d="M88-194c31-1 46 15 58 34l-1-101h50l1 261h-48c-2-10 0-23-3-31C134-8 116 4 84 4 32 4 16-41 15-95c0-56 19-97 73-99zm17 164c33 0 40-30 41-66 1-37-9-64-41-64s-38 30-39 65c0 43 13 65 39 65" id="ac"/><g id="n"><use transform="matrix(0.08641975308641973,0,0,0.08641975308641973,0,0)" xlink:href="#aa"/><use transform="matrix(0.08641975308641973,0,0,0.08641975308641973,20.740740740740737,0)" xlink:href="#S"/><use transform="matrix(0.08641975308641973,0,0,0.08641975308641973,38.02469135802468,0)" xlink:href="#L"/><use transform="matrix(0.08641975308641973,0,0,0.08641975308641973,55.30864197530863,0)" xlink:href="#V"/><use transform="matrix(0.08641975308641973,0,0,0.08641975308641973,63.950617283950606,0)" xlink:href="#ab"/><use transform="matrix(0.08641975308641973,0,0,0.08641975308641973,82.87654320987653,0)" xlink:href="#S"/><use transform="matrix(0.08641975308641973,0,0,0.08641975308641973,100.16049382716047,0)" xlink:href="#ac"/></g><path fill="#333" d="M182-130c37 4 62 22 62 59C244 23 116-4 24 0v-248c84 5 203-23 205 63 0 31-19 50-47 55zM76-148c40-3 101 13 101-30 0-44-60-28-101-31v61zm0 110c48-3 116 14 116-37 0-48-69-32-116-35v72" id="ad"/><path fill="#333" d="M85 4C-2 5 27-109 22-190h50c7 57-23 150 33 157 60-5 35-97 40-157h50l1 190h-47c-2-12 1-28-3-38-12 25-28 42-61 42" id="ae"/><path fill="#333" d="M121-226c-27-7-43 5-38 36h38v33H83V0H34v-157H6v-33h28c-9-59 32-81 87-68v32" id="af"/><g id="o"><use transform="matrix(0.08641975308641973,0,0,0.08641975308641973,0,0)" xlink:href="#ad"/><use transform="matrix(0.08641975308641973,0,0,0.08641975308641973,22.38271604938271,0)" xlink:href="#ae"/><use transform="matrix(0.08641975308641973,0,0,0.08641975308641973,41.30864197530863,0)" xlink:href="#af"/><use transform="matrix(0.08641975308641973,0,0,0.08641975308641973,51.59259259259258,0)" xlink:href="#af"/><use transform="matrix(0.08641975308641973,0,0,0.08641975308641973,61.87654320987653,0)" xlink:href="#N"/><use transform="matrix(0.08641975308641973,0,0,0.08641975308641973,79.16049382716048,0)" xlink:href="#T"/></g></defs></g></svg>