<svg xmlns="http://www.w3.org/2000/svg" xmlns:xlink="http://www.w3.org/1999/xlink" xmlns:lucid="lucid" width="680" height="120"><g transform="translate(-440 -220)" lucid:page-tab-id="0_0"><path d="M940 240h160v80H940z" stroke="#000" stroke-width="3" fill-opacity="0"/><use xlink:href="#a" transform="matrix(1,0,0,1,940,240) translate(50.40018229166668 47.228515624999986)"/><path d="M620 240h160v80H620z" stroke="#000" stroke-width="3" fill-opacity="0"/><use xlink:href="#b" transform="matrix(1,0,0,1,620,240) translate(13.394160156250033 47.228515624999986)"/><use xlink:href="#c" transform="matrix(1,0,0,1,620,240) translate(57.80138671875001 47.228515624999986)"/><path d="M780 240h160v80H780z" stroke="#000" stroke-width="3" fill-opacity="0"/><use xlink:href="#d" transform="matrix(1,0,0,1,780,240) translate(5.992955729166704 47.228515624999986)"/><use xlink:href="#c" transform="matrix(1,0,0,1,780,240) translate(65.20259114583334 47.228515624999986)"/><path d="M460 240h160v80H460z" stroke="#000" stroke-width="3" fill-opacity="0"/><g><use xlink:href="#e" transform="matrix(1,0,0,1,460,240) translate(20.79536458333336 34.728515624999986)"/><use xlink:href="#c" transform="matrix(1,0,0,1,460,240) translate(35.59777343750002 59.39518229166664)"/></g><defs><path d="M496-1349c439 0 656 222 653 664C1146-265 969 0 556 0H135v-1349h361zm36 1121c245-7 319-187 320-457 1-273-91-439-361-436h-61v893h102" id="f"/><path d="M775-193C708-75 621 20 439 20 226 20 106-93 106-306c0-251 170-341 417-346l223-4c4-143-12-264-148-264-103 0-141 58-150 153l-293-14c37-219 194-321 455-321 263 0 418 130 417 390v392c1 84 5 161 89 160 21 0 42-2 62-6v152c-57 15-108 27-180 26-145 0-202-73-217-205h-6zm-256 17c168 0 234-139 227-325-166 4-347-25-347 173 0 94 33 152 120 152" id="g"/><path d="M711 13c-250 0-386-99-385-349l2-556H161v-190h181l88-282h176v282h385v190H606v530c-10 130 45 186 174 184 91-2 176-11 255-27v186C933-1 833 13 711 13" id="h"/><g id="a"><use transform="matrix(0.012044270833333327,0,0,0.012044270833333327,0,0)" xlink:href="#f"/><use transform="matrix(0.012044270833333327,0,0,0.012044270833333327,14.802408854166659,0)" xlink:href="#g"/><use transform="matrix(0.012044270833333327,0,0,0.012044270833333327,29.604817708333318,0)" xlink:href="#h"/><use transform="matrix(0.012044270833333327,0,0,0.012044270833333327,44.40722656249998,0)" xlink:href="#g"/></g><path d="M157-1349h916v228H757v893h316V0H157v-228h316v-893H157v-228" id="i"/><path d="M616-1349c316 3 526 118 526 426 0 301-201 442-514 447H431V0H136v-1349h480zm-25 646c164 1 254-62 254-215 0-157-99-200-262-202H431v417h160" id="j"/><g id="b"><use transform="matrix(0.012044270833333327,0,0,0.012044270833333327,0,0)" xlink:href="#i"/><use transform="matrix(0.012044270833333327,0,0,0.012044270833333327,14.802408854166659,0)" xlink:href="#j"/></g><path d="M796 0v-574H433V0H138v-1349h295v531h363v-531h295V0H796" id="k"/><path d="M1113-274C1038-96 884 20 626 20c-352 0-526-209-526-566 0-358 185-556 530-556 358 0 496 251 499 615H395c5 180 68 319 245 319 102 0 186-45 208-129zM857-663c-6-177-128-307-315-247-94 30-141 121-145 247h460" id="l"/><path d="M802-909c-3-189-2-383-2-575h281v1248c-1 83 4 168 8 236H817c-9-50-14-117-15-176h-4C735-49 651 20 482 20 191 20 97-238 97-539c0-243 66-432 221-519 50-28 108-42 175-42 162 2 253 78 309 191zm-70 658c91-113 93-462 2-584-46-61-145-100-224-53-96 56-119 190-120 349 0 123 17 214 52 275 46 82 130 115 222 74 25-12 46-33 68-61" id="m"/><path d="M875-1102c70 0 148 7 206 17v237c-110-17-267-37-359 15-123 69-192 207-192 395V0H250c-10-367 32-789-52-1082h271c19 69 36 149 46 228h4c52-151 151-250 356-248" id="n"/><g id="c"><use transform="matrix(0.012044270833333327,0,0,0.012044270833333327,0,0)" xlink:href="#k"/><use transform="matrix(0.012044270833333327,0,0,0.012044270833333327,14.802408854166659,0)" xlink:href="#l"/><use transform="matrix(0.012044270833333327,0,0,0.012044270833333327,29.604817708333318,0)" xlink:href="#g"/><use transform="matrix(0.012044270833333327,0,0,0.012044270833333327,44.40722656249998,0)" xlink:href="#m"/><use transform="matrix(0.012044270833333327,0,0,0.012044270833333327,59.209635416666636,0)" xlink:href="#l"/><use transform="matrix(0.012044270833333327,0,0,0.012044270833333327,74.0120442708333,0)" xlink:href="#n"/></g><path d="M762-1121V0H467v-1121H61v-228h1107v228H762" id="o"/><path d="M872-915c-35-112-84-223-220-223-91 0-156 41-204 116-89 137-87 550 2 688 51 79 116 122 209 122 150 0 197-126 240-244l273 52C1094-168 961 20 656 20 239 20 80-262 80-681c0-418 154-689 568-689 289 0 425 167 496 389" id="p"/><g id="d"><use transform="matrix(0.012044270833333327,0,0,0.012044270833333327,0,0)" xlink:href="#o"/><use transform="matrix(0.012044270833333327,0,0,0.012044270833333327,14.802408854166659,0)" xlink:href="#p"/><use transform="matrix(0.012044270833333327,0,0,0.012044270833333327,29.604817708333318,0)" xlink:href="#j"/></g><path d="M137 0v-1349h968v228H432v324h612v228H432v341h714V0H137" id="q"/><path d="M424-1484c-2 206 5 424-8 618h4c67-145 160-234 348-236 251-3 335 167 336 416V0H824v-621c0-150-23-276-173-270-163 7-227 142-227 312V0H143v-1484h281" id="r"/><path d="M768-1103c247 0 336 167 336 416V0H824v-619c-3-164-24-273-171-273-164 0-229 142-229 312V0H143c-4-359 9-736-8-1082h268c7 63 12 146 13 215h4c67-145 160-236 348-236" id="s"/><g id="e"><use transform="matrix(0.012044270833333327,0,0,0.012044270833333327,0,0)" xlink:href="#q"/><use transform="matrix(0.012044270833333327,0,0,0.012044270833333327,14.802408854166659,0)" xlink:href="#h"/><use transform="matrix(0.012044270833333327,0,0,0.012044270833333327,29.604817708333318,0)" xlink:href="#r"/><use transform="matrix(0.012044270833333327,0,0,0.012044270833333327,44.40722656249998,0)" xlink:href="#l"/><use transform="matrix(0.012044270833333327,0,0,0.012044270833333327,59.209635416666636,0)" xlink:href="#n"/><use transform="matrix(0.012044270833333327,0,0,0.012044270833333327,74.0120442708333,0)" xlink:href="#s"/><use transform="matrix(0.012044270833333327,0,0,0.012044270833333327,88.81445312499996,0)" xlink:href="#l"/><use transform="matrix(0.012044270833333327,0,0,0.012044270833333327,103.61686197916661,0)" xlink:href="#h"/></g></defs></g></svg>